<svg xmlns="http://www.w3.org/2000/svg" width="16.941" height="13.584" viewBox="0 0 16.941 13.584"><g transform="translate(-394.283 -530.731)"><path d="M17.509,11.123a.849.849,0,0,1,0-.662l1.24-2.912A2.547,2.547,0,0,0,16.439,4H4.553A2.547,2.547,0,0,0,2.243,7.549l1.24,2.912a.849.849,0,0,1,0,.662l-1.24,2.912a2.547,2.547,0,0,0,2.309,3.549H16.439a2.547,2.547,0,0,0,2.335-3.549ZM7.949,7.4a.849.849,0,1,1-.849.849A.849.849,0,0,1,7.949,7.4Zm5.094,6.792a.849.849,0,1,1,.849-.849A.849.849,0,0,1,13.043,14.188Zm.6-5.34L8.552,13.942a.852.852,0,1,1-1.206-1.206L12.44,7.642a.852.852,0,0,1,1.206,1.206Z" transform="translate(392.245 526.731)"/></g></svg>