<svg xmlns="http://www.w3.org/2000/svg" width="16.866" height="17.693" viewBox="0 0 16.866 17.693"><g transform="translate(-392.777 -409.1)"><g transform="translate(356.965 396.479)"><path d="M44.69,249.388l-.749-.395-1.8-.951q-1.092-.576-2.185-1.155l-1.882-.993c-.3-.161-.607-.328-.916-.483l-.012-.007c.147.255.292.51.439.765v-6.984c0-.322.005-.645,0-.967V238.2l-1.332.765.749.4,1.8.951,2.185,1.155,1.882,1c.3.161.607.328.916.483l.012.007c-.147-.255-.292-.51-.439-.765v6.977c0,.322,0,.645,0,.967v.012a.922.922,0,0,0,.259.627.889.889,0,0,0,1.254,0,.918.918,0,0,0,.259-.627v-6.977c0-.322,0-.645,0-.967v-.012a.885.885,0,0,0-.439-.765l-.749-.4-1.8-.951-2.185-1.155-1.882-1c-.3-.161-.609-.326-.916-.483l-.012-.007a.9.9,0,0,0-.894,0,.892.892,0,0,0-.439.765v6.984c0,.322,0,.645,0,.967v.012a.882.882,0,0,0,.439.765l.749.395,1.8.951q1.092.576,2.185,1.155l1.882.993c.3.161.609.326.916.483l.012.007a.934.934,0,0,0,.682.089.9.9,0,0,0,.529-.407.888.888,0,0,0-.317-1.211Z" transform="translate(0 -220.721)"/><path d="M469.9,245.6l-.749.395-1.8.951q-1.092.576-2.185,1.155l-1.882.993c-.3.161-.613.317-.916.483l-.012.007,1.332.765v-6.977c0-.322.005-.645,0-.967v-.012c-.147.255-.292.51-.439.765l.749-.4,1.8-.951,2.185-1.155,1.882-1c.3-.161.613-.319.916-.483l.012-.007-1.332-.765v6.984c0,.322,0,.645,0,.967v.012a.922.922,0,0,0,.259.627.889.889,0,0,0,1.254,0,.919.919,0,0,0,.258-.627v-6.984c0-.322,0-.645,0-.967V238.4a.894.894,0,0,0-.439-.765.9.9,0,0,0-.894,0l-.749.4-1.8.951-2.185,1.155-1.882,1c-.3.161-.614.317-.916.483l-.012.007a.88.88,0,0,0-.439.765v6.977c0,.322,0,.645,0,.967v.012a.894.894,0,0,0,.439.765.909.909,0,0,0,.894,0l.749-.395,1.8-.951q1.092-.576,2.185-1.155l1.882-.993c.3-.161.615-.317.916-.483l.012-.007a.886.886,0,1,0-.893-1.53Z" transform="translate(-418.555 -220.917)"/><path d="M51.676,16.721l-.749.4-1.8.951-2.185,1.155-1.882,1c-.3.161-.613.319-.916.483l-.012.007h.894l-.749-.4-1.8-.951-2.185-1.155-1.882-1c-.3-.161-.607-.328-.916-.483l-.012-.007v1.528l.749-.395,1.8-.951,2.185-1.155q.94-.5,1.882-1c.3-.161.613-.319.916-.483l.012-.007h-.894l.749.395,1.8.951,2.185,1.155q.94.5,1.882,1c.3.161.609.326.916.483l.012.007a.934.934,0,0,0,.682.089.9.9,0,0,0,.529-.407.886.886,0,0,0-.319-1.211l-.76-.4L50,15.366,47.81,14.208l-1.875-.992c-.3-.159-.6-.324-.9-.476a.938.938,0,0,0-.574-.11.985.985,0,0,0-.34.112c-.034.018-.066.035-.1.051l-.467.246-1.707.9L39.67,15.09l-1.964,1.038q-.537.284-1.073.567l-.05.027a.891.891,0,0,0,0,1.528l.76.4,1.8.954,2.194,1.16,1.875.992c.3.159.6.324.9.478a.938.938,0,0,0,.574.11.985.985,0,0,0,.34-.112c.034-.018.066-.035.1-.051l.467-.246,1.707-.9,2.175-1.149,1.964-1.038,1.073-.568.05-.027a.886.886,0,0,0-.892-1.53Z" transform="translate(-0.333)"/><path d="M250.448,130.9l.749-.4,1.8-.951,2.185-1.155,1.882-1c.3-.161.615-.317.916-.483l.012-.007a.885.885,0,1,0-.893-1.528l-.749.4-1.8.951-2.185,1.155-1.882,1c-.3.161-.615.317-.916.483l-.012.007a.885.885,0,1,0,.892,1.528Z" transform="translate(-209.53 -110.657)"/></g></g></svg>