<svg xmlns="http://www.w3.org/2000/svg" width="13.385" height="13.385" viewBox="0 0 13.385 13.385"><g transform="translate(-397.808 -711.308)"><path d="M13.215,3H6.17A3.175,3.175,0,0,0,3,6.17v7.045a3.175,3.175,0,0,0,3.17,3.17h7.045a3.175,3.175,0,0,0,3.17-3.17V6.17A3.175,3.175,0,0,0,13.215,3ZM9.692,13.264a.352.352,0,1,1,.352-.352A.352.352,0,0,1,9.692,13.264Zm1.092-2.938c-.394.359-.74.669-.74,1.043v.409a.352.352,0,1,1-.7,0v-.409a2.192,2.192,0,0,1,.972-1.564c.472-.43.916-.831.916-1.444a1.536,1.536,0,1,0-3.071,0,.352.352,0,1,1-.7,0,2.24,2.24,0,1,1,4.48,0A2.7,2.7,0,0,1,10.784,10.326Z" transform="translate(394.808 708.308)"/></g></svg>