<svg xmlns="http://www.w3.org/2000/svg" width="89.191" height="41.032" viewBox="0 0 89.191 41.032"><g transform="translate(-623.131 -1415.213)"><g transform="translate(623.131 1415.213)"><path d="M327.748,382.023l16.524,16.525a4.01,4.01,0,0,1,0,5.642l-16.524,16.524a4.01,4.01,0,0,1-5.642,0L305.581,404.19a3.959,3.959,0,0,1,0-5.642l16.525-16.525a3.96,3.96,0,0,1,5.642,0Z" transform="translate(-256.241 -380.842)" fill="#d1dbe3" fill-rule="evenodd"/><path d="M349.764,396.6s.057,10.4,0,12.63a1.7,1.7,0,0,1-1.69,1.632H339.74L349.764,396.6Z" transform="translate(-273.646 -388.603)" fill="#fff" fill-rule="evenodd"/><path d="M338.473,396.657,325.413,410.89h-7.475a.5.5,0,0,1-.515-.659,1.073,1.073,0,0,1,.429-.516c2.348-1.489,20.62-13.059,20.62-13.059Z" transform="translate(-262.641 -388.631)" fill="#fff" fill-rule="evenodd"/><path d="M279.28,411.041a17.247,17.247,0,0,1-4.267-.572l1.2-2.864a7.794,7.794,0,0,0,3.208.8,2.71,2.71,0,0,0,2.692-1.489c.716-2-4.124-3.58-2.95-6.873.83-2.32,3.007-3.9,6.787-3.9a21.952,21.952,0,0,1,4.153.458l-1.117,2.806a6.189,6.189,0,0,0-2.664-.659c-1.174,0-2.434.143-2.864,1.375-.659,1.8,4.153,3.494,2.893,7.045-1.06,2.95-4.668,3.866-7.074,3.866Z" transform="translate(-241.767 -388.381)" fill="#d1dbe3" fill-rule="evenodd"/><path d="M258.009,407.605c.429-1.031.973-2.377,1.747-4.3-1.947,1.317-6.673,1.174-7.589,3.723-.458,1.346.659,1.776,1.8,1.69a13.965,13.965,0,0,0,4.038-1.117Zm-5.957,3.408c-4.611.172-4.124-2.749-3.666-4.038,2.062-5.785,11.485-3.923,12.573-7.016.487-1.375-1-1.661-2.034-1.575a20.757,20.757,0,0,0-3.265.6l.917-2.348a37.655,37.655,0,0,1,4.181-.516c2.52-.2,5.356.6,4.239,3.694-.744,2.033-2.835,6.558-4.353,10.854l-3.809.029c.172-.4.372-1,.372-1a16.238,16.238,0,0,1-5.155,1.317Z" transform="translate(-228.515 -388.353)" fill="#d1dbe3" fill-rule="evenodd"/><path d="M306.611,399.314c.115-.516.258-.974.4-1.489h.43c.114,0,.258.057.2.257-.057.258-.257.315-.487.315-.057,0-.143-.028-.172-.028.086.315.2.63.286.945h.43c-.144-.258-.258-.516-.372-.773a.6.6,0,0,0,.63-.487c.086-.315-.086-.43-.4-.43h-.8c-.143.544-.315,1.117-.458,1.69Zm.143.63a1.917,1.917,0,0,0,1.89-1.489,1.018,1.018,0,0,0-1.089-1.4,1.942,1.942,0,0,0-1.89,1.489c-.172.745.114,1.4,1.088,1.4Zm.057-.229c-.716,0-.974-.544-.83-1.174a1.612,1.612,0,0,1,1.517-1.26.838.838,0,0,1,.831,1.174,1.612,1.612,0,0,1-1.518,1.26Z" transform="translate(-256.841 -388.825)" fill="#d1dbe3" fill-rule="evenodd"/><path d="M219.38,407.605c.43-1.031,1-2.377,1.776-4.3-1.948,1.317-6.7,1.174-7.589,3.723-.487,1.346.658,1.776,1.8,1.69a13.966,13.966,0,0,0,4.01-1.117Zm-5.957,3.408c-4.582.172-4.095-2.749-3.637-4.038,2.034-5.785,11.456-3.923,12.573-7.016.487-1.375-1-1.661-2.062-1.575a20.369,20.369,0,0,0-3.236.6l.888-2.348a37.419,37.419,0,0,1,4.21-.516c2.491-.2,5.327.6,4.21,3.694-.716,2.033-2.806,6.558-4.353,10.854l-3.809.029a9.432,9.432,0,0,0,.4-1,16.26,16.26,0,0,1-5.184,1.317Z" transform="translate(-209.504 -388.353)" fill="#d1dbe3" fill-rule="evenodd"/><path d="M244.287,400.63c-.917,2.463-3.78,9.966-3.78,9.966l-3.923.029c.115-.258,2.32-6.014,3.9-10.2,1.718-3.981,3.752-4.611,6.816-4.467a19.009,19.009,0,0,1,2.606.344l-1.06,2.463c-1.6-.372-3.666-.573-4.554,1.861Z" transform="translate(-222.84 -388.28)" fill="#d1dbe3" fill-rule="evenodd"/><path d="M236.167,435.443a5.632,5.632,0,0,1-1.661.286c-1.2,0-1.546-.716-1.145-1.89a2.857,2.857,0,0,1,2.663-2.119,4.512,4.512,0,0,1,1.546.315l.373-1.374a5.772,5.772,0,0,0-1.776-.258,4.816,4.816,0,0,0-4.582,3.494c-.716,2.005.028,3.151,2.034,3.151a8.034,8.034,0,0,0,1.833-.229l.716-1.374Z" transform="translate(-220.247 -405.251)" fill="#d1dbe3" fill-rule="evenodd"/><path d="M258.7,439.538a10.18,10.18,0,0,0,2.692.372,3.776,3.776,0,0,0,4.009-2.606c1.089-2.921,2.062-5.241,2.635-6.587a12.746,12.746,0,0,0-2.606-.315,5.681,5.681,0,0,0-5.584,3.78c-.573,1.689.057,2.777,1.775,2.777a3.791,3.791,0,0,0,2.606-1.088h.028c-.544,1.4-.974,2.778-2.892,2.778a5.818,5.818,0,0,1-2.263-.487l-.4,1.374Zm7.189-7.79c-.315.8-.6,1.546-.945,2.291a2.98,2.98,0,0,1-2.291,1.69c-1.031,0-1.317-.687-.974-1.69a3.382,3.382,0,0,1,3.236-2.377,5.588,5.588,0,0,1,.974.086Z" transform="translate(-233.735 -405.251)" fill="#d1dbe3" fill-rule="evenodd"/><path d="M279.906,430.4a5.1,5.1,0,0,0-4.812,3.494c-.487,1.375-.258,3.151,2.291,3.151a5.034,5.034,0,0,0,4.783-3.437c.745-2.062-.258-3.207-2.262-3.207Zm-.43,1.26c1.145,0,1.317.859.945,1.919a2.921,2.921,0,0,1-2.578,2.205c-1.089,0-1.346-.831-.974-1.862a2.947,2.947,0,0,1,2.606-2.262Z" transform="translate(-241.706 -405.251)" fill="#d1dbe3" fill-rule="evenodd"/><path d="M245.232,435.406c.172-.458.429-1.089.773-1.948-.859.6-3.007.544-3.408,1.69-.2.6.286.8.8.745a6.851,6.851,0,0,0,1.833-.487Zm-2.692,1.517c-2.062.086-1.861-1.231-1.633-1.8.917-2.606,5.155-1.775,5.642-3.15.229-.63-.429-.744-.916-.716a10.245,10.245,0,0,0-1.461.258l.4-1.031c.687-.114.945-.172,1.89-.258,1.117-.086,2.406.287,1.89,1.69-.315.917-1.26,2.95-1.947,4.868h-1.718a4.086,4.086,0,0,0,.172-.429,7.054,7.054,0,0,1-2.32.572Z" transform="translate(-224.902 -405.156)" fill="#d1dbe3" fill-rule="evenodd"/><path d="M256.724,432.374c-.4,1.089-1.69,4.439-1.69,4.439h-1.747c.057-.114,1.031-2.663,1.747-4.553.773-1.747,1.661-2.034,3.036-1.976a7.36,7.36,0,0,1,1.145.143l-.458,1.117c-.716-.172-1.632-.258-2.033.83Z" transform="translate(-231.067 -405.189)" fill="#d1dbe3" fill-rule="evenodd"/></g></g></svg>