<svg xmlns="http://www.w3.org/2000/svg" xmlns:xlink="http://www.w3.org/1999/xlink" width="566" height="105" viewBox="0 0 566 105">
  <defs>
    <clipPath id="clip-path">
      <rect id="Rectangle_2962" data-name="Rectangle 2962" width="566" height="105" transform="translate(8717 -3544)" fill="#fff" stroke="#707070" stroke-width="1"/>
    </clipPath>
    <clipPath id="clip-path-2">
      <rect id="Rectangle_2961" data-name="Rectangle 2961" width="588" height="105"/>
    </clipPath>
  </defs>
  <g id="Mask_Group_23" data-name="Mask Group 23" transform="translate(-8717 3544)" clip-path="url(#clip-path)">
    <g id="Artboard_2" data-name="Artboard – 2" transform="translate(8695 -3544)" clip-path="url(#clip-path-2)">
      <rect id="Rectangle_2960" data-name="Rectangle 2960" width="588" height="105" fill="#fff"/>
      <g id="google-musteri-yorumlari-anketi" transform="translate(12 27.582)">
        <circle id="Ellipse_307" data-name="Ellipse 307" cx="12.803" cy="12.803" r="12.803" transform="translate(13.759 12.229)" fill="#fff"/>
        <path id="Path_390" data-name="Path 390" d="M14.437,67.3H10v.057h4.437Z" transform="translate(0 -42.325)" fill="#0f9d58"/>
        <path id="Path_391" data-name="Path 391" d="M111.4,67.3v.057h4.437V67.3Z" transform="translate(-72.741 -42.325)" fill="#0f9d58"/>
        <path id="Path_392" data-name="Path 392" d="M26.562,13.237V8.8A16.543,16.543,0,0,0,10,25.334h4.437a12.116,12.116,0,0,1,12.125-12.1Z" transform="translate(0 -0.359)" fill="#dc4537"/>
        <path id="Path_393" data-name="Path 393" d="M27.5,84.077V79.64c-6.67,0-13.029-5.4-13.058-12.04H10C10.028,76.672,18.366,84.077,27.5,84.077Z" transform="translate(0 -42.54)" fill="#557ebf"/>
        <path id="Path_394" data-name="Path 394" d="M84.838,50.464,75.964,64.6,68.7,57.3,78.9,44.5Z" transform="translate(-42.11 -25.969)" fill="#cdcccc"/>
        <path id="Path_395" data-name="Path 395" d="M71.9,79.5v4.437C81.029,83.906,87.445,76.5,87.445,67.4H83.007C83.007,74.07,78.57,79.468,71.9,79.5Z" transform="translate(-44.405 -42.397)" fill="#0f9d58"/>
        <path id="Path_396" data-name="Path 396" d="M80.625,25.262h4.437A16.567,16.567,0,0,0,68.5,8.7v4.437A12.159,12.159,0,0,1,80.625,25.262Z" transform="translate(-41.966 -0.287)" fill="#f3b41b"/>
        <path id="Path_397" data-name="Path 397" d="M40.961,21.3l5.709,3.476L61.763,9.8l1.978,1.894L47.179,32.41,38.7,23.932Z" transform="translate(-20.589 -1.076)" fill="#0f9d58"/>
        <g id="Group_1077" data-name="Group 1077" transform="translate(45.922 8.3)">
          <path id="Path_398" data-name="Path 398" d="M192.466,28.855a4.183,4.183,0,1,1-4.183-4.155,4.1,4.1,0,0,1,4.183,4.155Zm-1.837,0a2.352,2.352,0,1,0-2.346,2.515,2.383,2.383,0,0,0,2.346-2.515Z" transform="translate(-170.816 -20.065)" fill="#ea4535"/>
          <path id="Path_399" data-name="Path 399" d="M224.366,28.855a4.183,4.183,0,1,1-4.183-4.155,4.1,4.1,0,0,1,4.183,4.155Zm-1.837,0a2.352,2.352,0,1,0-2.346,2.515,2.383,2.383,0,0,0,2.346-2.515Z" transform="translate(-193.7 -20.065)" fill="#f9bc15"/>
          <path id="Path_400" data-name="Path 400" d="M255.9,24.883v7.461c0,3.081-1.809,4.324-3.957,4.324a4.028,4.028,0,0,1-3.7-2.459l1.583-.65a2.3,2.3,0,0,0,2.091,1.47A2.126,2.126,0,0,0,254.15,32.6V32h-.057a2.787,2.787,0,0,1-2.2.933,4.173,4.173,0,0,1,0-8.338,2.977,2.977,0,0,1,2.2.933h.057V24.85l1.752.028Zm-1.611,3.929a2.357,2.357,0,0,0-2.233-2.544,2.539,2.539,0,0,0,0,5.059,2.365,2.365,0,0,0,2.231-2.516Z" transform="translate(-216.585 -19.993)" fill="#557ebf"/>
          <path id="Path_401" data-name="Path 401" d="M281.781,10.1V22.31H280V10.1Z" transform="translate(-239.612 -9.591)" fill="#36a852"/>
          <path id="Path_402" data-name="Path 402" d="M295.19,30.24l1.413.933a4.123,4.123,0,0,1-3.476,1.837A4.067,4.067,0,0,1,289,28.855a3.942,3.942,0,0,1,3.929-4.155,3.873,3.873,0,0,1,3.561,2.657l.2.48-5.568,2.318a2.115,2.115,0,0,0,2.007,1.272,2.612,2.612,0,0,0,2.063-1.187Zm-4.381-1.5,3.731-1.554a1.623,1.623,0,0,0-1.554-.876,2.294,2.294,0,0,0-2.177,2.432Z" transform="translate(-246.068 -20.065)" fill="#ea4535"/>
          <path id="Path_403" data-name="Path 403" d="M143.657,16.016V14.235h5.964a6.132,6.132,0,0,1,.085,1.074,5.838,5.838,0,0,1-1.526,4.126,5.915,5.915,0,0,1-4.522,1.809,6.563,6.563,0,0,1-6.557-6.472A6.563,6.563,0,0,1,143.657,8.3a6.16,6.16,0,0,1,4.437,1.781l-1.244,1.244a4.537,4.537,0,0,0-3.194-1.272,4.692,4.692,0,1,0,0,9.383,4.336,4.336,0,0,0,3.279-1.3,3.71,3.71,0,0,0,.961-2.176Z" transform="translate(-137.1 -8.3)" fill="#557ebf"/>
        </g>
        <g id="Group_1078" data-name="Group 1078" transform="translate(46.77 28.932)">
          <path id="Path_404" data-name="Path 404" d="M140.128,81.9h1.611l2.657,4.607h.085l2.657-4.607h1.639v8.705h-1.639V86.337l.085-1.47h-.085l-2.2,3.9h-.989l-2.233-3.9h-.085l.085,1.47v4.3H140.1V81.9Z" transform="translate(-140.1 -81.73)" fill="#7f7f7f"/>
          <path id="Path_405" data-name="Path 405" d="M179.883,89.411H179.8a1.843,1.843,0,0,1-.763.707,2.233,2.233,0,0,1-1.074.254,1.991,1.991,0,0,1-1.7-.707,2.851,2.851,0,0,1-.565-1.837V84.239h1.583v3.42a1.4,1.4,0,0,0,.283.961,1.131,1.131,0,0,0,.82.311,1.113,1.113,0,0,0,.565-.141,1.331,1.331,0,0,0,.424-.367,1.725,1.725,0,0,0,.254-.565,2.788,2.788,0,0,0,.085-.678V84.239H181.3V90.2h-1.5v-.791Zm-2.4-6.359a.867.867,0,1,1,.622-.254.927.927,0,0,1-.624.254Zm2.289,0a.813.813,0,0,1-.594-.254.887.887,0,0,1,0-1.244.813.813,0,0,1,.594-.254.88.88,0,0,1,.622,1.5.831.831,0,0,1-.624.254Z" transform="translate(-165.638 -81.3)" fill="#7f7f7f"/>
          <path id="Path_406" data-name="Path 406" d="M201.742,97.187a3.9,3.9,0,0,1-1.046-.141,2.313,2.313,0,0,1-.791-.4,2.579,2.579,0,0,1-.565-.537,2.256,2.256,0,0,1-.339-.622l1.413-.622a1.364,1.364,0,0,0,.565.678,1.421,1.421,0,0,0,.763.226,1.377,1.377,0,0,0,.707-.17c.17-.113.254-.226.254-.367a.487.487,0,0,0-.226-.4,2.082,2.082,0,0,0-.735-.283l-.848-.17a2.25,2.25,0,0,1-.565-.2,2.15,2.15,0,0,1-.537-.339,1.76,1.76,0,0,1-.4-.509,1.343,1.343,0,0,1-.17-.678,1.568,1.568,0,0,1,.2-.791,1.632,1.632,0,0,1,.509-.565,2.388,2.388,0,0,1,.763-.367,3.428,3.428,0,0,1,.961-.141,3.365,3.365,0,0,1,1.526.339,2.052,2.052,0,0,1,.989,1.074l-1.385.565a1.109,1.109,0,0,0-.509-.509,1.394,1.394,0,0,0-.65-.17,1.314,1.314,0,0,0-.594.141.418.418,0,0,0-.254.367.4.4,0,0,0,.226.339,3.892,3.892,0,0,0,.565.226l.9.226a2.485,2.485,0,0,1,1.357.707,1.681,1.681,0,0,1,.452,1.131,1.649,1.649,0,0,1-.17.735,1.767,1.767,0,0,1-.509.622,2.36,2.36,0,0,1-.791.424,3.417,3.417,0,0,1-1.066.181Z" transform="translate(-182.353 -88.115)" fill="#7f7f7f"/>
          <path id="Path_407" data-name="Path 407" d="M220.546,88.394H219.5V87.037h1.046V85.2h1.583v1.837h1.47v1.357h-1.47v2.374a.9.9,0,0,0,.057.4.674.674,0,0,0,.17.311.582.582,0,0,0,.48.2.612.612,0,0,0,.339-.057.568.568,0,0,0,.226-.113l.452,1.385a2.442,2.442,0,0,1-.594.2,2.867,2.867,0,0,1-.707.057,2.489,2.489,0,0,1-.82-.141,1.464,1.464,0,0,1-.594-.4,2.163,2.163,0,0,1-.565-1.583V88.394Z" transform="translate(-197.059 -84.098)" fill="#7f7f7f"/>
          <path id="Path_408" data-name="Path 408" d="M242.835,95.863a3.7,3.7,0,0,1-1.1,1.187,2.982,2.982,0,0,1-1.7.452,3.759,3.759,0,0,1-1.272-.226,3.011,3.011,0,0,1-.989-.65,2.867,2.867,0,0,1-.65-.989,3.177,3.177,0,0,1-.226-1.272,3.439,3.439,0,0,1,.226-1.215,2.734,2.734,0,0,1,.65-1.017,3.079,3.079,0,0,1,.989-.678,2.965,2.965,0,0,1,1.244-.254,3.521,3.521,0,0,1,1.272.226,2.766,2.766,0,0,1,.933.65,2.657,2.657,0,0,1,.565.989,4.247,4.247,0,0,1,.2,1.244v.424h-4.494a1.5,1.5,0,0,0,.565,1.046,1.572,1.572,0,0,0,.48.254,1.775,1.775,0,0,0,.537.085,1.491,1.491,0,0,0,.9-.254,1.987,1.987,0,0,0,.565-.622Zm-1.441-2.318a.8.8,0,0,0-.113-.339,1.075,1.075,0,0,0-.254-.367,1.584,1.584,0,0,0-.424-.283,1.654,1.654,0,0,0-1.526.17,1.405,1.405,0,0,0-.537.82Z" transform="translate(-209.541 -88.402)" fill="#7f7f7f"/>
          <path id="Path_409" data-name="Path 409" d="M261.8,91.2h1.5v.82h.085a2.005,2.005,0,0,1,.283-.4,2.136,2.136,0,0,1,.4-.311,2.507,2.507,0,0,1,.48-.226,1.6,1.6,0,0,1,.5-.083,2.847,2.847,0,0,1,.537.057c.141.057.283.113.4.17l-.424,1.413a1.012,1.012,0,0,0-.311-.113,1.711,1.711,0,0,0-.424-.057,1.314,1.314,0,0,0-.594.141,1.134,1.134,0,0,0-.452.367,1.62,1.62,0,0,0-.283.537,2.428,2.428,0,0,0-.113.678v2.939H261.8Z" transform="translate(-227.404 -88.258)" fill="#7f7f7f"/>
          <path id="Path_410" data-name="Path 410" d="M279.846,83.635a.9.9,0,0,1-.4-.085,1.182,1.182,0,0,1-.339-.226,1.255,1.255,0,0,1-.226-.311.966.966,0,0,1,0-.791.8.8,0,0,1,.226-.311,1.016,1.016,0,0,1,.339-.226.9.9,0,0,1,.4-.085,1.039,1.039,0,0,1,.735,1.781,1.161,1.161,0,0,1-.735.254Zm-.791,6.755V84.455h1.583v5.964h-1.583Z" transform="translate(-239.599 -81.515)" fill="#7f7f7f"/>
          <path id="Path_411" data-name="Path 411" d="M299.239,86.563,296.3,81.9h1.95l1.724,2.883h.085l1.668-2.883H303.7l-2.883,4.663v4.042h-1.639V86.563Z" transform="translate(-252.153 -81.73)" fill="#7f7f7f"/>
          <path id="Path_412" data-name="Path 412" d="M323.337,91a3.759,3.759,0,0,1,1.272.226,3.012,3.012,0,0,1,.989.65,2.867,2.867,0,0,1,.65.989,3.176,3.176,0,0,1,.226,1.272,3.76,3.76,0,0,1-.226,1.272,2.744,2.744,0,0,1-.65.989,3.338,3.338,0,0,1-.989.65,3.178,3.178,0,0,1-1.272.226,3.759,3.759,0,0,1-1.272-.226,3.011,3.011,0,0,1-.989-.65,2.866,2.866,0,0,1-.65-.989,3.178,3.178,0,0,1-.226-1.272,3.759,3.759,0,0,1,.226-1.272,2.743,2.743,0,0,1,.65-.989,2.867,2.867,0,0,1,.989-.65A3.759,3.759,0,0,1,323.337,91Zm0,4.861a1.476,1.476,0,0,0,.594-.113,1.6,1.6,0,0,0,.509-.339,1.459,1.459,0,0,0,.339-.537,1.837,1.837,0,0,0,0-1.413,1.738,1.738,0,0,0-.339-.537,1.56,1.56,0,0,0-1.7-.339,2,2,0,0,0-.509.339,1.459,1.459,0,0,0-.339.537,1.837,1.837,0,0,0,0,1.413,1.738,1.738,0,0,0,.339.537,1.6,1.6,0,0,0,.509.339,1.311,1.311,0,0,0,.593.113Z" transform="translate(-269.298 -88.258)" fill="#7f7f7f"/>
          <path id="Path_413" data-name="Path 413" d="M345.7,91.2h1.5v.82h.085a2.005,2.005,0,0,1,.283-.4,2.135,2.135,0,0,1,.4-.311,2.506,2.506,0,0,1,.48-.226,1.6,1.6,0,0,1,.5-.083,2.847,2.847,0,0,1,.537.057c.141.057.283.113.4.17l-.424,1.413a1.012,1.012,0,0,0-.311-.113,1.711,1.711,0,0,0-.424-.057,1.314,1.314,0,0,0-.594.141,1.134,1.134,0,0,0-.452.367,1.621,1.621,0,0,0-.283.537,2.43,2.43,0,0,0-.113.678v2.939H345.7Z" transform="translate(-287.591 -88.258)" fill="#7f7f7f"/>
          <path id="Path_414" data-name="Path 414" d="M367.083,96.872H367a1.843,1.843,0,0,1-.763.707,2.233,2.233,0,0,1-1.074.254,1.991,1.991,0,0,1-1.7-.707,2.851,2.851,0,0,1-.565-1.837V91.7h1.583v3.42a1.4,1.4,0,0,0,.283.961,1.131,1.131,0,0,0,.82.311,1.113,1.113,0,0,0,.565-.141,1.329,1.329,0,0,0,.424-.367,1.725,1.725,0,0,0,.254-.565,2.789,2.789,0,0,0,.085-.678V91.7H368.5v5.964H367v-.791Z" transform="translate(-299.93 -88.761)" fill="#7f7f7f"/>
          <path id="Path_415" data-name="Path 415" d="M387.8,91.27h1.5v.791h.085a2.287,2.287,0,0,1,.763-.707,2.233,2.233,0,0,1,1.074-.254,1.979,1.979,0,0,1,1.131.311,1.6,1.6,0,0,1,.65.791,2.278,2.278,0,0,1,.791-.763,2.2,2.2,0,0,1,1.244-.311,2.535,2.535,0,0,1,.961.17,1.858,1.858,0,0,1,.65.48,1.954,1.954,0,0,1,.4.763,3.429,3.429,0,0,1,.141.961v3.759H395.6V93.785c0-.82-.339-1.215-.989-1.215a1.286,1.286,0,0,0-.565.141,1,1,0,0,0-.4.367,2.113,2.113,0,0,0-.254.565,2.85,2.85,0,0,0-.085.707v2.883h-1.583V93.757c0-.82-.339-1.215-1.046-1.215a1.169,1.169,0,0,0-.537.141,1.613,1.613,0,0,0-.4.367,1.727,1.727,0,0,0-.254.565,2.847,2.847,0,0,0-.085.707V97.2h-1.583V91.27Z" transform="translate(-317.792 -88.33)" fill="#7f7f7f"/>
          <path id="Path_416" data-name="Path 416" d="M425.7,90.605V81.9h1.583v8.705Z" transform="translate(-344.981 -81.73)" fill="#7f7f7f"/>
          <path id="Path_417" data-name="Path 417" d="M438.713,96.655h-.085a3.411,3.411,0,0,1-.678.594,1.808,1.808,0,0,1-1.017.254,2.993,2.993,0,0,1-.876-.141,2.471,2.471,0,0,1-.707-.424,1.859,1.859,0,0,1-.48-.65,2.028,2.028,0,0,1-.17-.82,1.823,1.823,0,0,1,.678-1.47,2.449,2.449,0,0,1,.763-.4,3.427,3.427,0,0,1,.961-.141,4.476,4.476,0,0,1,.961.085,2.688,2.688,0,0,1,.622.2v-.17a1,1,0,0,0-.367-.791,1.333,1.333,0,0,0-.933-.311,1.652,1.652,0,0,0-1.385.707l-1.159-.791a3.578,3.578,0,0,1,4.72-.537,2.45,2.45,0,0,1,.735,1.922v3.561h-1.554v-.678Zm0-1.781a4.709,4.709,0,0,0-.565-.226,2.409,2.409,0,0,0-.65-.085,1.349,1.349,0,0,0-.876.254.79.79,0,0,0-.311.622.737.737,0,0,0,.311.594,1.15,1.15,0,0,0,.678.226,1.476,1.476,0,0,0,.594-.113,1.076,1.076,0,0,0,.452-.311,1.392,1.392,0,0,0,.283-.424,1.921,1.921,0,0,0,.084-.537Z" transform="translate(-351.437 -88.402)" fill="#7f7f7f"/>
          <path id="Path_418" data-name="Path 418" d="M458.9,91.2h1.5v.82h.085a2.006,2.006,0,0,1,.283-.4,2.135,2.135,0,0,1,.4-.311,2.5,2.5,0,0,1,.48-.226,1.6,1.6,0,0,1,.5-.083,2.847,2.847,0,0,1,.537.057c.141.057.283.113.4.17l-.424,1.413a1.013,1.013,0,0,0-.311-.113,1.712,1.712,0,0,0-.424-.057,1.314,1.314,0,0,0-.594.141,1.134,1.134,0,0,0-.452.367,1.62,1.62,0,0,0-.283.537,2.432,2.432,0,0,0-.113.678v2.939H458.9Z" transform="translate(-368.797 -88.258)" fill="#7f7f7f"/>
          <path id="Path_419" data-name="Path 419" d="M476.8,97.635V91.7h1.583v5.964H476.8Z" transform="translate(-381.638 -88.761)" fill="#7f7f7f"/>
        </g>
        <g id="Group_1079" data-name="Group 1079" transform="translate(64.491 37.813)">
          <path id="Path_426" data-name="Path 426" d="M205.174,112.829l-.339.622a1.215,1.215,0,0,1,1.131,1.131c0,1.017-.9,1.357-1.922,1.357a2.312,2.312,0,0,1-1.244-.311l.311-.876a1.732,1.732,0,0,0,.876.254c.254,0,.537-.113.537-.4,0-.311-.367-.509-1.215-.565l.594-1.131h-.028C203.394,112.914,206.7,112.546,205.174,112.829Z" transform="translate(-202.8 -112.722)" fill="#7f7f7f"/>
        </g>
      </g>
      <line id="Line_3" data-name="Line 3" y2="75" transform="translate(171.5 15.5)" fill="none" stroke="#707070" stroke-width="1" opacity="0.143"/>
      <g id="Group_1080" data-name="Group 1080" transform="translate(-75.515 -1.001)">
        <path id="Path_437" data-name="Path 437" d="M1.2-11.168H5.728a4.045,4.045,0,0,1,2.7.832,2.646,2.646,0,0,1,.984,2.112,2.55,2.55,0,0,1-2.18,2.512A2.73,2.73,0,0,1,9-4.76a2.767,2.767,0,0,1,.664,1.832,2.6,2.6,0,0,1-.992,2.12A4.133,4.133,0,0,1,5.984,0H1.2ZM3.456-9.44v2.9H5.488A1.774,1.774,0,0,0,6.68-6.92a1.323,1.323,0,0,0,.44-1.064,1.348,1.348,0,0,0-.44-1.072A1.75,1.75,0,0,0,5.488-9.44Zm0,7.712H5.728a1.744,1.744,0,0,0,1.208-.408,1.436,1.436,0,0,0,.456-1.128A1.448,1.448,0,0,0,6.928-4.4a1.753,1.753,0,0,0-1.216-.416H3.456ZM14.784-11.12a1.328,1.328,0,0,1-.4.976,1.319,1.319,0,0,1-.968.4,1.319,1.319,0,0,1-.968-.4,1.328,1.328,0,0,1-.4-.976,1.328,1.328,0,0,1,.4-.976,1.319,1.319,0,0,1,.968-.4,1.319,1.319,0,0,1,.968.4,1.328,1.328,0,0,1,.4.976ZM12.288,0V-8.864h2.256V0ZM23.536-8.864v1.84L19.808-1.856h3.728V0H17.184V-1.856l3.744-5.168H17.184v-1.84Zm5.152-2.256a1.328,1.328,0,0,1-.4.976,1.319,1.319,0,0,1-.968.4,1.319,1.319,0,0,1-.968-.4,1.328,1.328,0,0,1-.4-.976,1.328,1.328,0,0,1,.4-.976,1.319,1.319,0,0,1,.968-.4,1.319,1.319,0,0,1,.968.4,1.328,1.328,0,0,1,.4.976ZM26.192,0V-8.864h2.256V0ZM38.048-1.52A5.494,5.494,0,0,1,36.4-5.62a5.48,5.48,0,0,1,1.656-4.1,5.586,5.586,0,0,1,4.056-1.616,5.777,5.777,0,0,1,3.24.928A5.093,5.093,0,0,1,47.376-7.8h-2.7a2.642,2.642,0,0,0-2.56-1.472,3.259,3.259,0,0,0-2.472,1,3.692,3.692,0,0,0-.952,2.656,3.692,3.692,0,0,0,.952,2.656,3.1,3.1,0,0,0,2.336,1,3.232,3.232,0,0,0,2.176-.68,2.967,2.967,0,0,0,.984-1.832H41.424v-1.7h6.128v1.712A5.377,5.377,0,0,1,45.76-1.272,5.41,5.41,0,0,1,41.976.1a5.416,5.416,0,0,1-3.928-1.62Zm15.9-.256a2.192,2.192,0,0,0,1.624-.7,2.7,2.7,0,0,0,.68-1.968A2.689,2.689,0,0,0,55.58-6.4a2.187,2.187,0,0,0-1.624-.688,2.136,2.136,0,0,0-1.608.688A2.741,2.741,0,0,0,51.7-4.432a2.741,2.741,0,0,0,.656,1.968,2.127,2.127,0,0,0,1.6.688Zm-3.248.64a4.419,4.419,0,0,1-1.3-3.312,4.338,4.338,0,0,1,1.312-3.3A4.541,4.541,0,0,1,53.968-9a4.541,4.541,0,0,1,3.256,1.248,4.338,4.338,0,0,1,1.312,3.3,4.376,4.376,0,0,1-1.32,3.312A4.547,4.547,0,0,1,53.952.128,4.465,4.465,0,0,1,50.7-1.136Zm14.256-.64a2.192,2.192,0,0,0,1.624-.7,2.7,2.7,0,0,0,.68-1.968,2.689,2.689,0,0,0-.672-1.96,2.187,2.187,0,0,0-1.624-.688,2.136,2.136,0,0,0-1.6.692,2.741,2.741,0,0,0-.66,1.968,2.741,2.741,0,0,0,.656,1.968,2.127,2.127,0,0,0,1.6.688Zm-3.248.64a4.419,4.419,0,0,1-1.3-3.312,4.338,4.338,0,0,1,1.312-3.3A4.541,4.541,0,0,1,64.976-9,4.541,4.541,0,0,1,68.24-7.744a4.338,4.338,0,0,1,1.312,3.3,4.376,4.376,0,0,1-1.32,3.312A4.547,4.547,0,0,1,64.96.128a4.465,4.465,0,0,1-3.248-1.264Zm10.88-.016a4.7,4.7,0,0,1-1.184-3.3A4.611,4.611,0,0,1,72.592-7.72,3.93,3.93,0,0,1,75.6-8.992a3.1,3.1,0,0,1,2.784,1.5V-8.864h2.24V.064A4.4,4.4,0,0,1,79.5,3.176a4.075,4.075,0,0,1-3.14,1.208,5.487,5.487,0,0,1-3.216-.84,3.178,3.178,0,0,1-1.352-2.392H74a1.729,1.729,0,0,0,.8.936,2.925,2.925,0,0,0,1.488.344,2.045,2.045,0,0,0,1.5-.592,2.392,2.392,0,0,0,.6-1.776V-1.488a3.14,3.14,0,0,1-2.8,1.616,3.932,3.932,0,0,1-3-1.28Zm5.088-1.36a2.594,2.594,0,0,0,.7-1.92,2.567,2.567,0,0,0-.7-1.912,2.27,2.27,0,0,0-1.648-.7,2.256,2.256,0,0,0-1.64.688,2.556,2.556,0,0,0-.7,1.9,2.594,2.594,0,0,0,.7,1.92,2.248,2.248,0,0,0,1.64.7,2.274,2.274,0,0,0,1.652-.676ZM83.712,0V-11.84h2.256V0ZM92.8.128a4.192,4.192,0,0,1-3.152-1.256,4.571,4.571,0,0,1-1.216-3.32,4.5,4.5,0,0,1,1.224-3.3,4.257,4.257,0,0,1,3.168-1.24A4.4,4.4,0,0,1,96.016-7.78a4.28,4.28,0,0,1,1.248,3.22,5.477,5.477,0,0,1-.064.86H90.736a2.106,2.106,0,0,0,.64,1.392A1.993,1.993,0,0,0,92.8-1.78a1.864,1.864,0,0,0,1.728-.96H96.96A3.891,3.891,0,0,1,95.472-.672a4.431,4.431,0,0,1-2.672.8Zm2.128-5.28A1.932,1.932,0,0,0,94.28-6.56a2.116,2.116,0,0,0-1.448-.528,2,2,0,0,0-1.416.528,2.236,2.236,0,0,0-.68,1.408Zm4.144-7.936h1.856a6.168,6.168,0,0,1,.272,1.832,2.206,2.206,0,0,1-.5,1.52,1.9,1.9,0,0,1-1.5.568v-.9q.8,0,.8-.976v-.3h-.928ZM109.28-2.512a2.594,2.594,0,0,0,.7-1.92,2.567,2.567,0,0,0-.7-1.912,2.27,2.27,0,0,0-1.648-.7,2.256,2.256,0,0,0-1.64.688,2.556,2.556,0,0,0-.7,1.9,2.594,2.594,0,0,0,.7,1.92,2.248,2.248,0,0,0,1.64.7,2.274,2.274,0,0,0,1.648-.676Zm-5.088,1.36a4.7,4.7,0,0,1-1.184-3.3,4.611,4.611,0,0,1,1.184-3.272A3.93,3.93,0,0,1,107.2-8.992a3.1,3.1,0,0,1,2.784,1.5V-11.84h2.24V0h-2.24V-1.488a3.14,3.14,0,0,1-2.8,1.616,3.932,3.932,0,0,1-2.992-1.28Zm16.768-1.36a2.594,2.594,0,0,0,.7-1.92,2.567,2.567,0,0,0-.7-1.912,2.27,2.27,0,0,0-1.648-.7,2.256,2.256,0,0,0-1.64.688,2.556,2.556,0,0,0-.7,1.9,2.594,2.594,0,0,0,.7,1.92,2.248,2.248,0,0,0,1.64.7,2.274,2.274,0,0,0,1.648-.676Zm-5.088,1.36a4.7,4.7,0,0,1-1.184-3.3,4.611,4.611,0,0,1,1.184-3.272A3.93,3.93,0,0,1,118.88-9a3.1,3.1,0,0,1,2.784,1.5V-8.864h2.24V0h-2.24V-1.488a3.14,3.14,0,0,1-2.8,1.616,3.932,3.932,0,0,1-2.992-1.28Zm18.864-.56h1.536a3.569,3.569,0,0,0,2.736-1.04,3.949,3.949,0,0,0,.976-2.816,3.949,3.949,0,0,0-.976-2.816,3.569,3.569,0,0,0-2.736-1.04h-1.536Zm1.536-9.456a6.133,6.133,0,0,1,4.344,1.536,5.28,5.28,0,0,1,1.656,4.064,5.23,5.23,0,0,1-1.656,4.048A6.172,6.172,0,0,1,136.272,0H132.48V-11.168ZM148.48.128a4.192,4.192,0,0,1-3.152-1.256,4.571,4.571,0,0,1-1.216-3.32,4.5,4.5,0,0,1,1.224-3.3,4.257,4.257,0,0,1,3.168-1.24,4.4,4.4,0,0,1,3.2,1.2,4.28,4.28,0,0,1,1.248,3.224,5.476,5.476,0,0,1-.064.864H146.42a2.106,2.106,0,0,0,.64,1.392,1.993,1.993,0,0,0,1.424.528,1.864,1.864,0,0,0,1.728-.96h2.432a3.891,3.891,0,0,1-1.488,2.064,4.431,4.431,0,0,1-2.676.8Zm2.128-5.28a1.932,1.932,0,0,0-.648-1.408,2.116,2.116,0,0,0-1.448-.528,2,2,0,0,0-1.416.528,2.236,2.236,0,0,0-.68,1.408ZM162.256-12.1a2.286,2.286,0,0,1-.688,1.76,2.617,2.617,0,0,1-1.856.64,2.646,2.646,0,0,1-1.864-.64,2.272,2.272,0,0,1-.7-1.76v-.416h1.2a1.087,1.087,0,0,0,.3.84,1.557,1.557,0,0,0,1.056.28,1.557,1.557,0,0,0,1.056-.28,1.087,1.087,0,0,0,.3-.84h1.184ZM155.968-1.152a4.7,4.7,0,0,1-1.184-3.3,4.611,4.611,0,0,1,1.184-3.272A3.93,3.93,0,0,1,158.976-9a3.1,3.1,0,0,1,2.784,1.5V-8.864H164V.064a4.4,4.4,0,0,1-1.12,3.112,4.075,4.075,0,0,1-3.144,1.208,5.487,5.487,0,0,1-3.216-.84,3.178,3.178,0,0,1-1.352-2.392h2.208a1.729,1.729,0,0,0,.8.936,2.925,2.925,0,0,0,1.488.344,2.045,2.045,0,0,0,1.5-.592,2.392,2.392,0,0,0,.6-1.776V-1.488a3.14,3.14,0,0,1-2.8,1.616,3.932,3.932,0,0,1-3-1.28Zm5.088-1.36a2.594,2.594,0,0,0,.7-1.92,2.567,2.567,0,0,0-.7-1.912,2.27,2.27,0,0,0-1.648-.7,2.256,2.256,0,0,0-1.64.688,2.556,2.556,0,0,0-.7,1.9,2.594,2.594,0,0,0,.7,1.92,2.248,2.248,0,0,0,1.64.7,2.274,2.274,0,0,0,1.648-.676Zm9.776,2.64a4.192,4.192,0,0,1-3.152-1.256,4.571,4.571,0,0,1-1.216-3.32,4.5,4.5,0,0,1,1.224-3.3,4.257,4.257,0,0,1,3.168-1.24,4.4,4.4,0,0,1,3.192,1.208A4.28,4.28,0,0,1,175.3-4.56a5.476,5.476,0,0,1-.064.864h-6.464a2.106,2.106,0,0,0,.64,1.392,1.993,1.993,0,0,0,1.424.528,1.864,1.864,0,0,0,1.728-.96H175a3.891,3.891,0,0,1-1.5,2.064,4.431,4.431,0,0,1-2.668.8Zm2.128-5.28a1.932,1.932,0,0,0-.648-1.408,2.116,2.116,0,0,0-1.448-.528,2,2,0,0,0-1.416.528,2.236,2.236,0,0,0-.68,1.408Zm7.056-3.712V-7.3A2.812,2.812,0,0,1,182.608-9v2.3h-.56a2.082,2.082,0,0,0-1.52.5,2.386,2.386,0,0,0-.512,1.736V0H177.76V-8.864ZM184.9,0V-11.84h2.256V0Zm9.088.128a4.192,4.192,0,0,1-3.152-1.256,4.571,4.571,0,0,1-1.216-3.32,4.5,4.5,0,0,1,1.224-3.3,4.257,4.257,0,0,1,3.168-1.24,4.4,4.4,0,0,1,3.188,1.2,4.28,4.28,0,0,1,1.248,3.224,5.476,5.476,0,0,1-.064.864H191.92a2.106,2.106,0,0,0,.64,1.392,1.993,1.993,0,0,0,1.424.528,1.864,1.864,0,0,0,1.728-.96h2.432a3.891,3.891,0,0,1-1.488,2.064,4.431,4.431,0,0,1-2.672.8Zm2.128-5.28a1.932,1.932,0,0,0-.648-1.408,2.116,2.116,0,0,0-1.448-.528,2,2,0,0,0-1.416.528,2.236,2.236,0,0,0-.68,1.408Zm7.056-3.712v1.328a2.94,2.94,0,0,1,2.752-1.456,3.285,3.285,0,0,1,2.48,1,3.844,3.844,0,0,1,.96,2.776V0h-2.24V-4.9a2.214,2.214,0,0,0-.528-1.592,1.9,1.9,0,0,0-1.44-.552,1.925,1.925,0,0,0-1.448.552,2.194,2.194,0,0,0-.536,1.592V0h-2.256V-8.864ZM218.02-2.512a2.594,2.594,0,0,0,.7-1.92,2.567,2.567,0,0,0-.7-1.912,2.27,2.27,0,0,0-1.648-.7,2.256,2.256,0,0,0-1.64.688,2.556,2.556,0,0,0-.7,1.9,2.594,2.594,0,0,0,.7,1.92,2.248,2.248,0,0,0,1.64.7,2.274,2.274,0,0,0,1.644-.676Zm-5.088,1.36a4.7,4.7,0,0,1-1.184-3.3,4.611,4.611,0,0,1,1.184-3.272A3.93,3.93,0,0,1,215.94-9a3.1,3.1,0,0,1,2.784,1.5V-11.84h2.24V0h-2.24V-1.488a3.14,3.14,0,0,1-2.8,1.616,3.932,3.932,0,0,1-3-1.28Zm13.616-9.968a1.328,1.328,0,0,1-.4.976,1.319,1.319,0,0,1-.968.4,1.319,1.319,0,0,1-.968-.4,1.328,1.328,0,0,1-.4-.976,1.328,1.328,0,0,1,.4-.976,1.319,1.319,0,0,1,.968-.4,1.319,1.319,0,0,1,.968.4,1.328,1.328,0,0,1,.4.976ZM224.048,0V-8.864H226.3V0Zm7.6-8.864V-7.3A2.812,2.812,0,0,1,234.24-9v2.3h-.56a2.082,2.082,0,0,0-1.52.5,2.386,2.386,0,0,0-.512,1.736V0h-2.256V-8.864Zm7.376-2.256a1.328,1.328,0,0,1-.4.976,1.319,1.319,0,0,1-.968.4,1.319,1.319,0,0,1-.968-.4,1.328,1.328,0,0,1-.4-.976,1.328,1.328,0,0,1,.4-.976,1.319,1.319,0,0,1,.968-.4,1.319,1.319,0,0,1,.968.4,1.328,1.328,0,0,1,.4.976ZM236.528,0V-8.864h2.256V0Zm7.6-8.864v1.328a2.94,2.94,0,0,1,2.752-1.456,3.285,3.285,0,0,1,2.48,1,3.844,3.844,0,0,1,.96,2.776V0h-2.24V-4.9a2.214,2.214,0,0,0-.528-1.592,1.9,1.9,0,0,0-1.44-.552,1.925,1.925,0,0,0-1.448.552,2.194,2.194,0,0,0-.536,1.592V0h-2.256V-8.864ZM256.944-1.28a1.225,1.225,0,0,1-.376.912,1.256,1.256,0,0,1-.912.368,1.256,1.256,0,0,1-.912-.368,1.225,1.225,0,0,1-.376-.912,1.225,1.225,0,0,1,.376-.912,1.256,1.256,0,0,1,.912-.368,1.256,1.256,0,0,1,.912.368,1.225,1.225,0,0,1,.376.912Zm-2.288-2.48-.256-8.256h2.4l-.256,8.256Z" transform="translate(263 52)"/>
        <g id="google-g-5-star-icon" transform="translate(263 60.001)">
          <path id="Path_431" data-name="Path 431" d="M1938.223,258.075a.753.753,0,0,0-.652-.512l-4.116-.367-1.627-3.744a.763.763,0,0,0-1.394,0l-1.627,3.743-4.117.367a.755.755,0,0,0-.652.512.735.735,0,0,0,.222.791l3.111,2.681-.917,3.971a.738.738,0,0,0,.3.769.764.764,0,0,0,.832.036l3.551-2.085,3.549,2.085a.766.766,0,0,0,.833-.036.738.738,0,0,0,.294-.769l-.917-3.971,3.11-2.681a.737.737,0,0,0,.222-.79Z" transform="translate(-1871.189 -253)" fill="#ffc107"/>
          <path id="Path_432" data-name="Path 432" d="M2296.223,258.075a.753.753,0,0,0-.652-.512l-4.117-.367-1.627-3.744a.763.763,0,0,0-1.394,0l-1.627,3.743-4.117.367a.755.755,0,0,0-.651.512.735.735,0,0,0,.221.791l3.111,2.681-.917,3.971a.738.738,0,0,0,.294.769.764.764,0,0,0,.833.036l3.55-2.085,3.549,2.085a.766.766,0,0,0,.833-.036.739.739,0,0,0,.3-.769l-.917-3.971,3.111-2.681A.736.736,0,0,0,2296.223,258.075Z" transform="translate(-2211.585 -253)" fill="#ffc107"/>
          <path id="Path_433" data-name="Path 433" d="M1580.223,258.075a.753.753,0,0,0-.652-.512l-4.116-.367-1.627-3.744a.763.763,0,0,0-1.394,0l-1.628,3.743-4.117.367a.755.755,0,0,0-.651.512.735.735,0,0,0,.222.791l3.111,2.681-.917,3.971a.738.738,0,0,0,.294.769.765.765,0,0,0,.833.036l3.55-2.085,3.549,2.085a.766.766,0,0,0,.833-.036.738.738,0,0,0,.295-.769l-.917-3.971,3.111-2.681a.736.736,0,0,0,.221-.79Z" transform="translate(-1530.793 -253)" fill="#ffc107"/>
          <path id="Path_434" data-name="Path 434" d="M1222.223,258.075a.753.753,0,0,0-.652-.512l-4.116-.367-1.627-3.744a.763.763,0,0,0-1.394,0l-1.628,3.743-4.117.367a.755.755,0,0,0-.652.512.736.736,0,0,0,.222.791l3.111,2.681-.917,3.971a.738.738,0,0,0,.294.769.765.765,0,0,0,.833.036l3.55-2.085,3.549,2.085a.766.766,0,0,0,.833-.036.739.739,0,0,0,.3-.769l-.917-3.971,3.111-2.681a.736.736,0,0,0,.222-.79Z" transform="translate(-1190.397 -253)" fill="#ffc107"/>
          <path id="Path_435" data-name="Path 435" d="M864.223,258.075a.753.753,0,0,0-.652-.512l-4.116-.367-1.627-3.744a.763.763,0,0,0-1.394,0l-1.627,3.743-4.117.367a.756.756,0,0,0-.652.512.736.736,0,0,0,.222.791l3.111,2.681-.917,3.971a.738.738,0,0,0,.295.769.764.764,0,0,0,.832.036l3.55-2.085,3.549,2.085a.766.766,0,0,0,.833-.036.739.739,0,0,0,.295-.769l-.917-3.971L864,258.867A.736.736,0,0,0,864.223,258.075Z" transform="translate(-850 -253)" fill="#ffc107"/>
        </g>
      </g>
      <rect id="Rectangle_93" data-name="Rectangle 93" width="123" height="34" rx="17" transform="translate(460 38)" fill="#0c9aff"/>
      <g id="Group_1081" data-name="Group 1081" transform="translate(1 4)">
        <path id="Path_438" data-name="Path 438" d="M4.7,0H3.012V-2.88L.18-8.376h1.9L3.864-4.428,5.64-8.376h1.9L4.7-2.88Zm7.38-1.332a1.644,1.644,0,0,0,1.22-.522,2.024,2.024,0,0,0,.51-1.476,2.017,2.017,0,0,0-.5-1.47,1.64,1.64,0,0,0-1.218-.516,1.6,1.6,0,0,0-1.206.516,2.056,2.056,0,0,0-.492,1.476,2.056,2.056,0,0,0,.492,1.476,1.6,1.6,0,0,0,1.2.516Zm-2.436.48a3.314,3.314,0,0,1-.972-2.484A3.254,3.254,0,0,1,9.66-5.808a3.406,3.406,0,0,1,2.44-.936,3.406,3.406,0,0,1,2.442.936,3.254,3.254,0,0,1,.984,2.472,3.282,3.282,0,0,1-.99,2.484A3.41,3.41,0,0,1,12.084.1,3.349,3.349,0,0,1,9.648-.852Zm9.432-5.8v1.176A2.109,2.109,0,0,1,21.02-6.748V-5.02H20.6a1.562,1.562,0,0,0-1.14.378,1.79,1.79,0,0,0-.384,1.3V0H17.388V-6.648Zm8.244,0h1.692V0H27.324V-1.008A2.216,2.216,0,0,1,25.248.084,2.449,2.449,0,0,1,23.4-.666a2.883,2.883,0,0,1-.72-2.082v-3.9h1.68v3.66a1.683,1.683,0,0,0,.4,1.2,1.413,1.413,0,0,0,1.08.42,1.433,1.433,0,0,0,1.086-.42,1.667,1.667,0,0,0,.4-1.2Zm5.7,0v1a2.205,2.205,0,0,1,2.064-1.092,2.62,2.62,0,0,1,1.35.348,2.333,2.333,0,0,1,.918,1,2.591,2.591,0,0,1,.954-.984,2.616,2.616,0,0,1,1.362-.36A2.553,2.553,0,0,1,41.586-6a2.864,2.864,0,0,1,.726,2.088V0h-1.68V-3.672a1.661,1.661,0,0,0-.4-1.194,1.424,1.424,0,0,0-1.08-.414,1.444,1.444,0,0,0-1.086.414,1.645,1.645,0,0,0-.4,1.194V0h-1.68V-3.672a1.661,1.661,0,0,0-.4-1.194,1.424,1.424,0,0,0-1.08-.414,1.444,1.444,0,0,0-1.086.414,1.645,1.645,0,0,0-.4,1.194V0H31.332V-6.648ZM52.488,0H50.8V-2.88l-2.832-5.5h1.9l1.788,3.948L53.432-8.38h1.9L52.5-2.88Zm8.664-1.884a1.946,1.946,0,0,0,.528-1.44,1.925,1.925,0,0,0-.528-1.434,1.7,1.7,0,0,0-1.236-.522,1.692,1.692,0,0,0-1.23.516,1.917,1.917,0,0,0-.522,1.428,1.946,1.946,0,0,0,.528,1.44,1.686,1.686,0,0,0,1.23.528,1.7,1.7,0,0,0,1.23-.516ZM57.336-.864a3.524,3.524,0,0,1-.888-2.472,3.458,3.458,0,0,1,.888-2.454,2.948,2.948,0,0,1,2.256-.954A2.328,2.328,0,0,1,61.68-5.616V-6.648h1.68V0H61.68V-1.116A2.355,2.355,0,0,1,59.58.1a2.949,2.949,0,0,1-2.244-.964ZM70.344-1.9a1.946,1.946,0,0,0,.528-1.44,1.917,1.917,0,0,0-.522-1.428,1.692,1.692,0,0,0-1.23-.516,1.683,1.683,0,0,0-1.23.522,1.938,1.938,0,0,0-.522,1.434A1.938,1.938,0,0,0,67.89-1.89a1.683,1.683,0,0,0,1.23.522A1.654,1.654,0,0,0,70.344-1.9ZM67.368-5.62a2.3,2.3,0,0,1,2.076-1.128A2.948,2.948,0,0,1,71.7-5.79a3.467,3.467,0,0,1,.888,2.46A3.488,3.488,0,0,1,71.7-.864,2.919,2.919,0,0,1,69.462.1a2.333,2.333,0,0,1-2.094-1.212v4.28H65.676V-6.648h1.692Z" transform="translate(496 55)" fill="#fff"/>
        <g id="comment_x5F_stroke" transform="translate(473 44)">
          <path id="Path_436" data-name="Path 436" d="M10.8,2.16a4.32,4.32,0,1,1,0,8.64H6.479a4.313,4.313,0,0,0-3.453,1.729A2.167,2.167,0,0,1,2.16,10.8V5.4A3.244,3.244,0,0,1,5.4,2.16h5.4M10.8,0H5.4A5.4,5.4,0,0,0,0,5.4v5.4a4.321,4.321,0,0,0,4.319,4.32A2.16,2.16,0,0,1,6.48,12.96H10.8A6.48,6.48,0,0,0,10.8,0Z" fill="#fff"/>
        </g>
      </g>
    </g>
  </g>
</svg>
