<svg xmlns="http://www.w3.org/2000/svg" width="125.79" height="21.641" viewBox="0 0 125.79 21.641"><g transform="translate(-798.922 -1424.938)"><g transform="translate(798.922 1424.938)"><path d="M201.8,539.4h-6.814v7.313s-.3.9-1.048.9c0,0-1.2,0-1.2-.9v-8.88s.974-5.3,5.84-2.91v-2.313s-7.862-3.209-12.13,4.179c0,0-2.995,6.119,1.947,10.746,0,0,2.1,2.239,6.589,2.239,0,0,4.043.149,6.814-2.015V539.4Zm-33.47,10.149V532.536h-4.867l-4.418,6.119-3.968-6.119h-5.167v17.089h2.4V542.61l3.968,6.343,4.718-6.268v6.865ZM184.2,532.387h-2.471v7.089l-4.268-6.94h-7.712v16.939h2.321v-6.94l4.268,6.94H184.2V532.387Z" transform="translate(-149.909 -531.917)" fill="#d1dbe3" fill-rule="evenodd"/><path d="M269.036,549.605V533.534h4.827v7.882l3.184-3.685h5.341l-4.519,4.4L283,549.605h-5.649l-2.67-4.2-.822.819v3.378Zm23.418-5.323a9.57,9.57,0,0,1-1.849.614c-1.129.307-1.746.717-1.746,1.229a1.161,1.161,0,0,0,.308.819,1.741,1.741,0,0,0,1.027.307,2.142,2.142,0,0,0,2.362-2.354l-.1-.307v-.307Zm.513,5.323-.308-1.126a8.413,8.413,0,0,1-2.054,1.228,8.775,8.775,0,0,1-2.362.307,4.916,4.916,0,0,1-3.184-.921,3.845,3.845,0,0,1-1.129-2.866,3.172,3.172,0,0,1,1.129-2.559,10.844,10.844,0,0,1,4.108-1.229l1.13-.1c1.438-.2,2.259-.512,2.259-1.228a1.036,1.036,0,0,0-.41-.717,4.035,4.035,0,0,0-1.335-.2,1.849,1.849,0,0,0-1.13.307c-.308.1-.411.41-.514.819h-4.622a3.225,3.225,0,0,1,1.643-2.969,8.906,8.906,0,0,1,4.827-1.024,21.762,21.762,0,0,1,2.67.2,5.035,5.035,0,0,1,1.952.819,2.393,2.393,0,0,1,1.232,1.228,9.635,9.635,0,0,1,.308.921c0,.307.1.716.1,1.126v6.653a1.291,1.291,0,0,0,.1.614c.1.1.205.307.41.409v.307Zm7.087,0V537.731h4.417v2.15a4.3,4.3,0,0,1,1.335-1.842,4.392,4.392,0,0,1,2.465-.614h.41v4.709h-.513l-.513-.1a3.4,3.4,0,0,0-2.157.717,2.874,2.874,0,0,0-.617,2.047v4.811Zm14.585-6.039a3.649,3.649,0,0,0,.514,2.15,1.456,1.456,0,0,0,1.438.716,1.623,1.623,0,0,0,1.541-.716,3.653,3.653,0,0,0,.513-2.15,2.943,2.943,0,0,0-.616-1.945,1.8,1.8,0,0,0-2.876,0,3.151,3.151,0,0,0-.514,1.945Zm-4.006,7.37h4.725a1.3,1.3,0,0,0,.411.614,3.057,3.057,0,0,0,1.027.2,1.866,1.866,0,0,0,1.438-.512,4.081,4.081,0,0,0,.41-2.048v-.614a3.708,3.708,0,0,1-1.54.819,4.99,4.99,0,0,1-1.849.307,4.776,4.776,0,0,1-3.9-1.638,6.052,6.052,0,0,1-1.541-4.4,6.962,6.962,0,0,1,1.438-4.5,4.375,4.375,0,0,1,3.8-1.74,5.54,5.54,0,0,1,2.259.41,4.389,4.389,0,0,1,1.643,1.433v-1.535h4.314v10.952c0,2.048-.514,3.583-1.54,4.4-1.028.921-2.774,1.33-5.238,1.33a7.879,7.879,0,0,1-4.108-.921,3.791,3.791,0,0,1-1.746-2.559Zm19.412-7.268a4.449,4.449,0,0,0,.513,2.354,1.556,1.556,0,0,0,1.439.716,1.623,1.623,0,0,0,1.54-.716,5.651,5.651,0,0,0,0-4.709A1.623,1.623,0,0,0,332,540.6a1.557,1.557,0,0,0-1.439.717,4.447,4.447,0,0,0-.513,2.354Zm-4.827,0a6.158,6.158,0,0,1,1.849-4.709,6.837,6.837,0,0,1,4.93-1.638,7.1,7.1,0,0,1,5.033,1.638,6.922,6.922,0,0,1,0,9.418A7.1,7.1,0,0,1,332,550.015a7,7,0,0,1-4.93-1.638,6.158,6.158,0,0,1-1.849-4.709Z" transform="translate(-213.089 -532.775)" fill="#d1dbe3" fill-rule="evenodd"/></g></g></svg>