<svg xmlns="http://www.w3.org/2000/svg" width="139.212" height="24.605" viewBox="0 0 139.212 24.605"><g transform="translate(-982 -1424.001)"><g transform="translate(982 1423.551)"><g transform="translate(0 0.45)"><g transform="translate(0 0)"><g transform="translate(0 0)"><g transform="translate(2.959 0)"><path d="M5.282,11.192S12.926,3.41,29.607.574A49.283,49.283,0,0,0,.116,8.127Zm71.707,6.34a26.624,26.624,0,0,1-3.543-.048q-1.852-.144-1.512-2.351l1.233-8H71.687l.1-.672a1.907,1.907,0,0,1,.678-1.2,2,2,0,0,1,1.051-.423l.588-3.812h1.775a1.348,1.348,0,0,1,1.06.48,1.356,1.356,0,0,1,.316,1.152l-.333,2.159h2.022l-.1.672a1.906,1.906,0,0,1-.678,1.2,2,2,0,0,1-1.25.432h-.345l-1.095,7.1q-.125.816.861.816h1.036ZM26.306,13.309h3.353a1.5,1.5,0,0,0,.518,1.439,3.208,3.208,0,0,0,1.9.48,3.579,3.579,0,0,0,1.581-.336,1.24,1.24,0,0,0,.732-.912q.133-.864-1.871-1.3A8.8,8.8,0,0,1,31.23,12.4a6.642,6.642,0,0,1-3.272-1.487,2.54,2.54,0,0,1-.631-2.3,4.536,4.536,0,0,1,1.9-3.023,7.063,7.063,0,0,1,4.017-1.1,6.093,6.093,0,0,1,3.923,1.1A3.588,3.588,0,0,1,38.21,8.7H36.09a1.315,1.315,0,0,1-1.3-.816L34.45,7.5a2.415,2.415,0,0,0-1.561-.432,3.281,3.281,0,0,0-1.524.288,1.159,1.159,0,0,0-.577.864q-.118.768,2.365,1.3.281.1.471.144a2.186,2.186,0,0,0,.437.048A7.824,7.824,0,0,1,37.34,11.15a2.619,2.619,0,0,1,.582,2.3,4.564,4.564,0,0,1-2.081,3.263,8.487,8.487,0,0,1-4.6,1.056,5.906,5.906,0,0,1-4.022-1.1,3.315,3.315,0,0,1-.935-3.215ZM50.58,17.532l.954-6.19a8.748,8.748,0,0,1,1.023-3.119,6.742,6.742,0,0,1,1.9-2.063A7.387,7.387,0,0,1,56.785,5.1a10.888,10.888,0,0,1,2.666-.336h.493l-.525,3.407H58.285a3.341,3.341,0,0,0-2.224.672,3.311,3.311,0,0,0-1.016,2.111l-1.013,6.574ZM67.288,11.1a10.791,10.791,0,0,1-2.02.624l-1.171.24a3.514,3.514,0,0,0-1.378.624,2.234,2.234,0,0,0-.508,1.056,1.354,1.354,0,0,0,.267,1.152,1.673,1.673,0,0,0,1.223.384,3.418,3.418,0,0,0,2.288-.768A3.316,3.316,0,0,0,67.1,12.3Zm-.12,5.9a6.617,6.617,0,0,1-2.315.624,16.759,16.759,0,0,1-2.044.144,4.736,4.736,0,0,1-2.967-.912,3.126,3.126,0,0,1-.851-3.119,3.95,3.95,0,0,1,1.628-2.879A8.409,8.409,0,0,1,63.9,9.71a4.467,4.467,0,0,0,.6-.048,5.458,5.458,0,0,1,.811-.144q2.214-.288,2.363-1.248a.744.744,0,0,0-.649-.912,4.18,4.18,0,0,0-1.344-.24,3.959,3.959,0,0,0-1.263.192,1.655,1.655,0,0,0-.9.72h-3.3a4.48,4.48,0,0,1,1.758-2.447,6.548,6.548,0,0,1,3.968-1.1,6.866,6.866,0,0,1,4,.912,2.615,2.615,0,0,1,1.016,2.687l-.673,4.367a6.14,6.14,0,0,1-1.205,3.023A5.265,5.265,0,0,1,67.167,17ZM39.811,7.061l.1-.661a1.94,1.94,0,0,1,.621-1.152,1.966,1.966,0,0,1,1.307-.48h1.8l-.352,2.293Zm11.321.9-.661,4.293q-.526,3.407-2.513,4.463A8.747,8.747,0,0,1,43.8,17.772a7.257,7.257,0,0,1-3.719-1.152q-1.367-.923-1.149-3.571l.746-5.089h3.463l-.044.286-.721,4.678a1.734,1.734,0,0,0,.431,1.68,2.2,2.2,0,0,0,1.5.528,2.883,2.883,0,0,0,1.66-.528,2.292,2.292,0,0,0,1-1.68l.765-4.965Zm.492-3.193-.353,2.293h-3.4l.1-.661a1.939,1.939,0,0,1,.622-1.152,1.964,1.964,0,0,1,1.307-.48Z" transform="translate(-0.116 -0.45)" fill="#d1dbe3" fill-rule="evenodd"/></g><g transform="translate(0 0.441)"><g transform="translate(0 0)"><path d="M0,24.376S11.974,12.049,27.938,7.555L21.6,4.6S9.754,8.225,0,24.376ZM87.164,4.114l-.721,4.9,4.894-4.9h4.123l-5.414,5.1,3.506,8.2H89.428l-1.743-4.5q-.537-1.35-1.107-1.15t-.628.6l-.272,1.85-.471,3.2H81.77L84.3.213h1.767a1.369,1.369,0,0,1,1.1.5,1.407,1.407,0,0,1,.322,1.15Zm15.108,6.6a10.452,10.452,0,0,1-2.01.65l-1.166.25a3.423,3.423,0,0,0-1.372.65,2.376,2.376,0,0,0-.505,1.1,1.461,1.461,0,0,0,.265,1.2,1.62,1.62,0,0,0,1.217.4,3.309,3.309,0,0,0,2.278-.8,3.507,3.507,0,0,0,1.109-2.2Zm-.12,6.151a6.354,6.354,0,0,1-2.3.651,16,16,0,0,1-2.035.15,4.568,4.568,0,0,1-2.952-.95,3.355,3.355,0,0,1-.847-3.251,4.162,4.162,0,0,1,1.619-3,8.13,8.13,0,0,1,3.269-1.2,4.3,4.3,0,0,0,.6-.05,5.165,5.165,0,0,1,.808-.15q2.2-.3,2.351-1.3a.771.771,0,0,0-.645-.95,3.994,3.994,0,0,0-1.338-.25,3.766,3.766,0,0,0-1.256.2,1.661,1.661,0,0,0-.9.75H95.233a4.667,4.667,0,0,1,1.75-2.551,6.306,6.306,0,0,1,3.949-1.15,6.588,6.588,0,0,1,3.983.95,2.789,2.789,0,0,1,1.011,2.8l-.67,4.551a6.567,6.567,0,0,1-1.2,3.151A5.282,5.282,0,0,1,102.152,16.866Zm3.193.55.949-6.451a9.411,9.411,0,0,1,1.018-3.251A6.917,6.917,0,0,1,109.2,5.564a7.193,7.193,0,0,1,2.321-1.1,10.392,10.392,0,0,1,2.653-.35h.491l-.523,3.551h-1.129a3.227,3.227,0,0,0-2.214.7,3.515,3.515,0,0,0-1.011,2.2l-1.008,6.851Zm16.841-.8.125-.85a4.535,4.535,0,0,1-7.8-.7,7.455,7.455,0,0,1-.4-4.3,9.546,9.546,0,0,1,2.11-5,6.05,6.05,0,0,1,4.8-1.95,7.008,7.008,0,0,1,4.177,1.3q1.821,1.3,1.306,4.8l-1.037,7.051q-.515,3.5-2.712,4.751a8.865,8.865,0,0,1-4.56,1.3q-4.516,0-4.963-4.3h3.583a1.983,1.983,0,0,0,1.024,1.05,2.217,2.217,0,0,0,1.59.2,2.934,2.934,0,0,0,1.613-.95A4.649,4.649,0,0,0,122.186,16.616Zm-4.75-5.751q-.508,3.451,1.4,3.851a3.016,3.016,0,0,0,3.036-.95,4.4,4.4,0,0,0,.888-1.7,7.309,7.309,0,0,0,.346-2.35,3.96,3.96,0,0,0-.483-2.051,1.822,1.822,0,0,0-1.733-.9,2.661,2.661,0,0,0-2.442,1.25A7.407,7.407,0,0,0,117.437,10.865Zm10.733,5.351a4.143,4.143,0,0,1-1.119-2.4,11.283,11.283,0,0,1,.029-3.2,11.888,11.888,0,0,1,.741-2.7,7.082,7.082,0,0,1,1.509-2.25,5.9,5.9,0,0,1,3.546-1.75,6.983,6.983,0,0,1,3.588.3,4.1,4.1,0,0,1,2.367,2.6,7.933,7.933,0,0,1,.268,3.851,10.549,10.549,0,0,1-.749,2.75,8.524,8.524,0,0,1-1.171,1.95,5.942,5.942,0,0,1-3.3,2.051,6.51,6.51,0,0,1-3.3.05A4.6,4.6,0,0,1,128.169,16.216Zm3.651-8.8a5.384,5.384,0,0,0-1.44,3.451,5.02,5.02,0,0,0,.371,3.151,1.916,1.916,0,0,0,.928.7,2.427,2.427,0,0,0,1.465.05,3.238,3.238,0,0,0,1.544-1.15,6.463,6.463,0,0,0,1.065-2.9,4.665,4.665,0,0,0-.191-2.7,2,2,0,0,0-1.107-1.15,2.234,2.234,0,0,0-1.472,0A2.819,2.819,0,0,0,131.821,7.414Z" transform="translate(0 -0.213)" fill="#d1dbe3" fill-rule="evenodd"/></g></g></g></g></g></g></g></svg>