<svg xmlns="http://www.w3.org/2000/svg" width="132.95" height="32.904" viewBox="0 0 132.95 32.904"><g transform="translate(-407.693 -1417.457)"><g transform="translate(407.693 1417.457)"><g transform="translate(0 0)"><g transform="translate(0 0)"><path d="M33.546,2.1c.484-.8-.332-1.688-1.8-1.994S28.7.176,28.16.953L9.494,27.861c-1.051,1.52-.387,3.409,1.623,4.071a4.927,4.927,0,0,0,5.527-1.8Z" transform="translate(-2.268 0)" fill="#0069b3" fill-rule="evenodd"/><path d="M.868,32.061a1.153,1.153,0,0,1-.583-1.883L10.744,16.037a1.784,1.784,0,0,0,0-2.194L1.226,2.377c-.61-.736.08-1.691,1.51-2.14C4.148-.208,5.8-.009,6.445.688l9.648,10.387a1.608,1.608,0,0,1,0,2.048L3.426,31.241a2.375,2.375,0,0,1-2.558.82" transform="translate(0 0)" fill="#0069b3" fill-rule="evenodd"/><g transform="translate(24.762 0.174)"><path d="M18.609.286a1.645,1.645,0,0,0-1.544.368L.558,13.1S-.61,14,.793,15.4l16,16.051a5.138,5.138,0,0,0,5.847.984c1.636-.981,1.641-2.946.079-4.373L6.245,13.012c-.608-.556-.679-.725-.054-1.22L19.531,1.223c.313-.3-.24-.8-.922-.937" transform="translate(-0.102 -0.232)" fill="#ee7d00" fill-rule="evenodd"/></g><path d="M129.674,19.336a.9.9,0,0,1,0,1.36,1.13,1.13,0,0,1-1.492,0L124.31,17.17a.9.9,0,0,1,0-1.361l3.872-3.526a1.124,1.124,0,0,1,1.492,0,.9.9,0,0,1,0,1.358L126.55,16.49Z" transform="translate(-31.242 -3.023)" fill="#ee7d00" fill-rule="evenodd"/><path d="M150.984,12.959a1.012,1.012,0,0,1-1.056.959,2.706,2.706,0,0,0-2.82,2.571v3.528a1.059,1.059,0,0,1-2.108,0V16.489A4.73,4.73,0,0,1,149.929,12a1.013,1.013,0,0,1,1.056.959" transform="translate(-36.533 -3.023)" fill="#ee7d00" fill-rule="evenodd"/><path d="M136.491,19.056a2.569,2.569,0,1,1,2.566-2.567,2.569,2.569,0,0,1-2.566,2.567m0-7.056a4.488,4.488,0,1,0,2.579,8.158.958.958,0,0,0,1.907-.14V16.489A4.494,4.494,0,0,0,136.491,12" transform="translate(-33.258 -3.023)" fill="#ee7d00" fill-rule="evenodd"/><path d="M93.984,12.959a1.011,1.011,0,0,1-1.055.959,2.708,2.708,0,0,0-2.823,2.571v3.528a1.058,1.058,0,0,1-2.107,0V16.489A4.73,4.73,0,0,1,92.929,12a1.012,1.012,0,0,1,1.055.959" transform="translate(-22.172 -3.023)" fill="#0069b3" fill-rule="evenodd"/><path d="M82.994,12a.972.972,0,0,0-.982.959v3.623a2.527,2.527,0,0,1-5.052,0V12.959a.98.98,0,0,0-1.96,0v3.623a4.489,4.489,0,0,0,8.977,0V12.959A.972.972,0,0,0,82.994,12" transform="translate(-18.896 -3.023)" fill="#0069b3" fill-rule="evenodd"/><path d="M100.489,10.647h-1.5V8.995a1,1,0,0,0-1.993,0v9.978a1,1,0,0,0,1.993,0V12.642h1.5a1,1,0,1,0,0-1.994" transform="translate(-24.439 -2.016)" fill="#0069b3" fill-rule="evenodd"/><path d="M105.121,12a1.05,1.05,0,0,0-1.121.959v7.058a1.136,1.136,0,0,0,2.244,0V12.959A1.051,1.051,0,0,0,105.121,12" transform="translate(-26.203 -3.023)" fill="#0069b3" fill-rule="evenodd"/><path d="M105.122,8a1.122,1.122,0,1,0,1.122,1.125A1.124,1.124,0,0,0,105.122,8" transform="translate(-26.203 -2.016)" fill="#0069b3" fill-rule="evenodd"/><path d="M121.121,12a1.05,1.05,0,0,0-1.121.959v7.058a1.136,1.136,0,0,0,2.244,0V12.959A1.051,1.051,0,0,0,121.121,12" transform="translate(-30.234 -3.023)" fill="#0069b3" fill-rule="evenodd"/><path d="M120,9.125a1.122,1.122,0,1,1,1.123,1.119A1.124,1.124,0,0,1,120,9.125" transform="translate(-30.234 -2.016)" fill="#0069b3" fill-rule="evenodd"/><path d="M114.531,18.39a2.678,2.678,0,0,1-1.882.761,2.6,2.6,0,1,1,0-5.207,2.686,2.686,0,0,1,1.882.763,1.012,1.012,0,0,0,1.408,0,.96.96,0,0,0,0-1.375A4.689,4.689,0,0,0,112.649,12a4.539,4.539,0,0,0-.988,8.992c0,.035-.006.068-.006.1v.972c0,.539,1.988.539,1.988,0V21.1c0-.037,0-.07,0-.1a4.668,4.668,0,0,0,2.3-1.23.957.957,0,0,0,0-1.372,1.013,1.013,0,0,0-1.408,0" transform="translate(-27.211 -3.023)" fill="#0069b3" fill-rule="evenodd"/><g transform="translate(123.541 9.101)"><path d="M4.856,7.564A2.693,2.693,0,1,1,7.549,4.873,2.695,2.695,0,0,1,4.856,7.564m0-7.4a4.705,4.705,0,1,0,4.7,4.706A4.71,4.71,0,0,0,4.856.167" transform="translate(-0.152 -0.167)" fill="#ee7d00" fill-rule="evenodd"/></g><path d="M159.058,16.521a2.569,2.569,0,1,0-2.57,2.585,2.581,2.581,0,0,0,2.57-2.585Zm1.919,5.172a4.457,4.457,0,0,1-4.394,4.521c-1.949,0-1.608-1.244-1.608-1.244a.946.946,0,0,1,.913-.741c.183,0,.366.054.7.054a2.536,2.536,0,0,0,2.475-2.59v-1.47a4.42,4.42,0,0,1-2.57.817,4.52,4.52,0,1,1,4.489-4.518Z" transform="translate(-38.297 -3.023)" fill="#ee7d00" fill-rule="evenodd"/><path d="M66.489,24.28a2.558,2.558,0,0,0,2.525-2.588l0-1.47a4.311,4.311,0,0,1-2.528.817A4.41,4.41,0,0,1,62,16.6V12.966a.98.98,0,0,1,1.959,0V16.6a2.528,2.528,0,0,0,5.055.017V12.966a.981.981,0,0,1,1.962,0v8.726a4.506,4.506,0,0,1-4.488,4.521c-1.995,0-1.646-1.244-1.646-1.244a.959.959,0,0,1,.931-.744c.188,0,.375.055.715.055" transform="translate(-15.621 -3.023)" fill="#0069b3" fill-rule="evenodd"/><path d="M144.748,33h0Z" transform="translate(-36.281 -8.314)" fill="#0069b3" fill-rule="evenodd"/></g></g></g></g></svg>